{"glyphs":{"0":{"ha":1033,"x_min":69,"x_max":964,"o":"m 517 996 q 703 956 621 996 q 844 847 786 915 q 933 685 901 778 q 964 486 964 592 q 933 288 964 381 q 844 126 901 196 q 703 17 786 57 q 517 -24 621 -24 q 330 17 413 -24 q 190 126 247 57 q 101 288 132 196 q 69 486 69 381 q 101 685 69 592 q 190 847 132 778 q 330 956 247 915 q 517 996 413 996 m 517 114 q 585 143 554 114 q 636 223 615 172 q 669 341 657 274 q 681 486 681 408 q 669 631 681 563 q 637 749 658 699 q 585 829 615 800 q 517 858 554 858 q 449 829 479 858 q 397 749 418 800 q 365 631 376 699 q 353 486 353 563 q 365 341 353 408 q 397 223 376 274 q 449 143 418 172 q 517 114 479 114 z "},"1":{"ha":488,"x_min":49,"x_max":390,"o":"m 49 846 l 324 972 l 390 972 l 390 0 l 133 0 l 133 728 l 49 728 l 49 846 z "},"2":{"ha":856,"x_min":49,"x_max":786,"o":"m 786 703 q 754 579 786 640 q 669 460 722 518 q 548 348 615 401 q 410 247 481 294 l 742 247 l 742 0 l 49 0 l 49 125 q 107 174 67 140 q 198 253 147 207 q 302 353 249 299 q 401 468 356 408 q 474 588 446 528 q 503 703 503 647 q 467 817 503 776 q 364 858 432 858 q 251 815 301 858 q 160 701 200 772 l 57 796 q 116 873 82 836 q 194 937 150 910 q 290 980 238 964 q 406 996 343 996 q 558 977 489 996 q 678 921 628 958 q 758 828 729 883 q 786 703 786 774 z "},"3":{"ha":867,"x_min":35,"x_max":797,"o":"m 617 501 q 751 401 704 463 q 797 257 797 339 q 770 144 797 196 q 694 56 743 93 q 578 -3 646 18 q 429 -24 510 -24 q 192 29 297 -24 q 35 174 86 82 l 140 246 q 242 148 186 182 q 358 114 299 114 q 471 155 428 114 q 514 260 514 196 q 497 331 514 299 q 450 387 481 364 q 377 422 419 410 q 285 435 335 435 l 285 560 q 440 602 383 560 q 497 718 497 644 q 462 819 497 781 q 364 858 426 858 q 255 819 313 858 q 154 704 197 781 l 53 796 q 206 944 108 892 q 428 996 304 996 q 569 976 504 996 q 681 920 633 956 q 754 836 728 885 q 781 729 781 788 q 738 598 781 656 q 617 501 696 540 z "},"4":{"ha":863,"x_min":35,"x_max":814,"o":"m 732 972 l 732 347 l 814 347 l 814 222 l 732 222 l 732 0 l 475 0 l 475 222 l 35 222 l 35 347 l 603 972 l 732 972 m 221 347 l 475 347 l 475 628 l 221 347 z "},"5":{"ha":879,"x_min":49,"x_max":810,"o":"m 440 628 q 590 607 522 628 q 707 547 658 586 q 783 449 756 507 q 810 318 810 392 q 781 179 810 242 q 700 72 751 117 q 578 1 649 26 q 426 -24 508 -24 q 306 -9 364 -24 q 199 31 247 6 q 112 93 150 57 q 49 174 74 129 l 154 246 q 253 148 199 182 q 361 114 308 114 q 428 129 397 114 q 481 172 458 144 q 515 234 503 199 q 528 311 528 269 q 481 442 528 392 q 353 492 433 492 q 272 476 311 492 q 193 424 233 460 l 106 483 l 104 483 l 104 972 l 718 971 l 718 725 l 240 725 l 240 589 q 328 617 279 606 q 440 628 378 628 z "},"6":{"ha":951,"x_min":69,"x_max":903,"o":"m 540 624 q 688 602 621 624 q 802 541 754 581 q 876 447 850 501 q 903 325 903 392 q 872 188 903 251 q 785 78 840 125 q 653 4 729 32 q 490 -24 578 -24 q 320 15 397 -22 q 188 118 243 53 q 101 272 132 183 q 69 467 69 361 q 104 676 69 579 q 199 844 139 774 q 338 956 258 915 q 506 996 417 996 q 610 981 558 996 q 706 942 661 967 q 785 885 750 918 q 839 814 819 851 l 738 719 q 698 772 719 746 q 651 816 676 797 q 599 847 626 835 q 544 858 572 858 q 399 774 449 858 q 349 549 349 690 q 424 606 379 588 q 540 624 469 624 m 494 114 q 596 169 557 117 q 635 301 635 221 q 624 374 635 340 q 595 433 614 408 q 551 472 576 458 q 496 486 525 486 q 392 433 433 486 q 351 296 351 379 q 390 167 351 217 q 494 114 429 117 z "},"7":{"ha":753,"x_min":35,"x_max":718,"o":"m 35 972 l 718 972 l 718 890 l 340 0 l 125 0 l 510 725 l 35 725 l 35 972 z "},"8":{"ha":954,"x_min":49,"x_max":906,"o":"m 725 518 q 858 407 811 472 q 906 265 906 342 q 874 151 906 204 q 786 60 843 99 q 651 -1 729 21 q 478 -24 572 -24 q 305 -1 383 -24 q 169 60 226 21 q 81 151 113 99 q 49 265 49 204 q 97 407 49 342 q 229 518 144 472 q 134 616 167 563 q 101 732 101 669 q 129 836 101 788 q 207 920 157 885 q 326 976 257 956 q 478 996 394 996 q 629 976 560 996 q 749 920 699 956 q 826 836 799 885 q 854 732 854 788 q 821 616 854 669 q 725 518 788 563 m 478 858 q 411 819 438 858 q 385 718 385 779 q 411 617 385 656 q 478 578 438 578 q 544 617 518 578 q 571 718 571 656 q 544 819 571 781 q 478 858 518 858 m 478 114 q 583 160 542 114 q 624 278 624 206 q 583 394 624 349 q 478 440 542 440 q 374 394 414 440 q 333 276 333 349 q 374 160 333 206 q 478 114 414 114 z "},"9":{"ha":951,"x_min":49,"x_max":882,"o":"m 463 996 q 639 953 561 993 q 771 847 717 914 q 853 690 825 779 q 882 501 882 601 q 847 292 882 389 q 749 126 811 196 q 602 16 686 56 q 422 -24 518 -24 q 297 -5 354 -24 q 193 43 239 14 q 115 107 147 72 q 67 174 83 142 l 174 246 q 233 180 201 206 q 295 140 264 154 q 355 119 326 125 q 407 114 383 114 q 502 141 464 114 q 563 212 540 168 q 594 311 585 256 q 603 424 603 367 q 534 369 576 389 q 413 349 492 349 q 270 369 336 349 q 155 427 204 389 q 77 519 106 465 q 49 643 49 574 q 78 776 49 713 q 161 888 107 839 q 292 965 215 936 q 463 996 368 994 m 456 486 q 511 500 485 486 q 558 538 538 514 q 589 597 578 563 q 600 674 600 632 q 592 741 600 708 q 565 799 583 774 q 521 841 547 825 q 457 858 494 857 q 399 842 425 857 q 356 801 374 826 q 328 742 338 776 q 318 671 318 708 q 328 599 318 633 q 356 540 338 565 q 399 501 374 515 q 456 486 425 486 z "},"\u0000":{"ha":0,"x_min":0,"x_max":0,"o":""},"\r":{"ha":451,"x_min":0,"x_max":0,"o":""}," ":{"ha":451,"x_min":0,"x_max":0,"o":""},"E":{"ha":824,"x_min":97,"x_max":775,"o":"m 354 125 l 775 125 l 775 0 l 97 0 l 97 972 l 747 972 l 747 847 l 354 847 l 354 549 l 567 549 l 567 424 l 354 424 l 354 125 z "},"F":{"ha":793,"x_min":97,"x_max":744,"o":"m 97 972 l 744 972 l 744 847 l 354 847 l 354 513 l 596 513 l 596 388 l 354 388 l 354 0 l 97 0 l 97 972 z "},"G":{"ha":1074,"x_min":69,"x_max":976,"o":"m 572 419 l 572 547 l 976 547 l 976 0 l 822 0 l 792 46 q 691 -6 744 13 q 579 -24 638 -24 q 380 17 472 -24 q 218 126 288 57 q 109 288 149 194 q 69 488 69 381 q 110 686 69 593 q 219 848 150 779 q 383 956 289 917 q 585 996 476 996 q 687 986 636 996 q 783 960 738 976 q 867 919 829 943 q 932 865 906 894 l 836 760 q 626 858 749 858 q 513 832 564 858 q 427 758 463 806 q 372 641 392 710 q 353 489 353 572 q 372 335 353 404 q 427 217 392 267 q 513 141 463 168 q 622 114 563 114 q 671 124 646 114 q 719 158 696 135 l 719 419 l 572 419 z "},"H":{"ha":1004,"x_min":97,"x_max":907,"o":"m 651 547 l 651 972 l 907 972 l 907 0 l 651 0 l 651 419 l 353 419 l 353 0 l 97 0 l 97 972 l 353 972 l 353 547 l 651 547 z "},"I":{"ha":424,"x_min":83,"x_max":340,"o":"m 83 0 l 83 972 l 340 972 l 340 0 l 83 0 z "},"J":{"ha":438,"x_min":-114,"x_max":354,"o":"m 97 335 l 97 972 l 354 972 l 354 335 q 327 97 354 197 q 247 -75 300 -3 q 115 -194 194 -147 q -69 -274 35 -242 l -114 -185 q -6 -112 -47 -154 q 58 -10 35 -71 q 89 134 81 50 q 97 335 97 218 z "},"K":{"ha":983,"x_min":97,"x_max":949,"o":"m 857 972 l 565 638 l 949 0 l 653 0 l 390 438 l 354 396 l 354 0 l 97 0 l 97 972 l 354 972 l 354 579 l 697 972 l 857 972 z "},"L":{"ha":819,"x_min":97,"x_max":785,"o":"m 354 125 l 785 125 l 785 0 l 97 0 l 97 972 l 354 972 l 354 125 z "},"M":{"ha":1179,"x_min":97,"x_max":1082,"o":"m 825 972 l 1082 972 l 1082 0 l 825 0 l 825 611 l 631 0 l 428 0 l 233 611 l 233 0 l 97 0 l 97 972 l 364 972 l 594 322 l 825 972 z "},"N":{"ha":947,"x_min":83,"x_max":864,"o":"m 728 354 l 728 972 l 864 972 l 864 0 l 628 0 l 219 679 l 219 0 l 83 0 l 83 972 l 357 972 l 728 354 z "},"O":{"ha":1142,"x_min":69,"x_max":1072,"o":"m 571 996 q 766 956 675 996 q 925 847 857 915 q 1033 685 993 778 q 1072 486 1072 592 q 1033 288 1072 381 q 925 126 993 196 q 766 17 857 57 q 571 -24 675 -24 q 376 17 467 -24 q 217 126 285 57 q 109 288 149 196 q 69 486 69 381 q 109 685 69 592 q 217 847 149 778 q 376 956 285 915 q 571 996 467 996 m 571 114 q 656 143 617 114 q 725 223 696 172 q 772 341 754 274 q 789 486 789 408 q 772 631 789 563 q 725 749 754 699 q 656 829 696 800 q 571 858 617 858 q 487 829 526 858 q 417 749 447 800 q 370 631 388 699 q 353 486 353 563 q 370 341 353 408 q 417 223 388 274 q 487 143 447 172 q 571 114 526 114 z "},"P":{"ha":928,"x_min":97,"x_max":879,"o":"m 554 972 q 681 947 621 972 q 784 876 740 921 q 853 771 828 831 q 879 643 879 711 q 853 515 879 575 q 784 410 828 456 q 681 340 740 365 q 554 314 621 314 l 354 314 l 354 0 l 97 0 l 97 972 l 554 972 m 481 439 q 525 455 504 439 q 562 499 546 471 q 587 564 578 526 q 596 643 596 601 q 587 722 596 685 q 562 788 578 760 q 525 831 546 815 q 481 847 504 847 l 354 847 l 354 439 l 481 439 z "},"Q":{"ha":1142,"x_min":69,"x_max":1557,"o":"m 1347 -243 q 1424 -231 1385 -243 q 1493 -196 1464 -219 l 1557 -276 q 1473 -328 1513 -307 q 1396 -361 1433 -349 q 1322 -378 1358 -374 q 1249 -383 1286 -383 q 1079 -358 1154 -383 q 942 -293 1004 -332 q 826 -208 879 -254 q 724 -122 774 -162 q 627 -53 675 -82 q 525 -21 579 -25 q 346 31 429 -12 q 201 142 263 74 q 105 298 140 210 q 69 486 69 386 q 109 684 69 592 q 217 846 149 776 q 376 956 285 915 q 571 996 467 996 q 766 956 675 996 q 925 846 857 915 q 1033 684 993 776 q 1072 486 1072 592 q 1052 345 1072 414 q 996 217 1032 276 q 907 112 960 158 q 790 38 854 65 q 873 5 831 29 q 960 -50 915 -19 q 1051 -115 1004 -81 q 1146 -178 1097 -150 q 1244 -224 1194 -206 q 1347 -243 1294 -243 m 571 114 q 656 143 617 114 q 725 223 696 172 q 772 341 754 274 q 789 486 789 408 q 772 631 789 563 q 725 749 754 699 q 656 829 696 800 q 571 858 617 858 q 487 829 526 858 q 418 749 447 800 q 372 631 389 699 q 354 486 354 563 q 372 341 354 408 q 418 223 389 274 q 487 143 447 172 q 571 114 526 114 z "},"R":{"ha":935,"x_min":97,"x_max":900,"o":"m 860 679 q 817 525 860 594 q 703 419 774 456 l 900 0 l 635 0 l 451 388 l 353 388 l 353 0 l 97 0 l 97 972 l 571 972 q 683 949 631 972 q 775 887 736 926 q 837 794 814 847 q 860 679 860 740 m 353 847 l 353 513 l 481 513 q 517 526 500 513 q 548 562 535 539 q 569 615 561 585 q 576 679 576 644 q 569 744 576 714 q 548 798 561 775 q 517 834 535 821 q 481 847 500 847 l 353 847 z "},"S":{"ha":883,"x_min":35,"x_max":835,"o":"m 301 781 q 340 713 301 742 q 439 656 379 683 q 567 599 499 629 q 696 527 636 568 q 795 431 756 486 q 835 296 835 375 q 804 171 835 229 q 719 69 774 113 q 591 1 665 26 q 428 -24 517 -24 q 202 27 304 -24 q 35 174 100 78 l 139 244 q 428 111 235 111 q 543 132 507 111 q 579 192 579 153 q 556 251 579 225 q 496 299 533 276 q 410 343 458 322 q 311 388 361 364 q 213 438 261 411 q 128 501 165 465 q 67 581 90 536 q 44 683 44 625 q 76 807 44 750 q 164 906 108 864 q 295 972 219 949 q 460 996 371 996 q 660 961 568 996 q 808 865 753 926 l 713 761 q 602 840 656 818 q 471 863 549 863 q 344 842 388 863 q 301 781 301 821 z "},"T":{"ha":904,"x_min":35,"x_max":869,"o":"m 35 972 l 869 972 l 869 847 l 581 847 l 581 0 l 324 0 l 324 847 l 35 847 l 35 972 z "},"U":{"ha":986,"x_min":97,"x_max":903,"o":"m 767 386 l 767 972 l 903 972 l 903 386 q 875 215 903 292 q 795 86 847 139 q 668 5 743 33 q 500 -24 593 -24 q 332 5 407 -24 q 205 86 257 33 q 125 215 153 139 q 97 386 97 292 l 97 972 l 354 972 l 354 386 q 410 188 354 261 q 561 114 465 114 q 712 187 657 114 q 767 386 767 260 z "},"V":{"ha":922,"x_min":35,"x_max":888,"o":"m 526 322 l 742 972 l 888 972 l 547 0 l 375 0 l 35 972 l 311 972 l 526 322 z "},"W":{"ha":1343,"x_min":35,"x_max":1308,"o":"m 1004 357 l 1156 972 l 1308 972 l 1024 0 l 846 0 l 672 650 l 499 0 l 319 0 l 35 972 l 318 972 l 471 357 l 644 971 l 831 971 l 1004 357 z "},"X":{"ha":896,"x_min":35,"x_max":861,"o":"m 854 972 l 576 525 l 861 0 l 572 0 l 388 340 l 186 0 l 35 0 l 315 475 l 46 972 l 335 972 l 503 661 l 703 972 l 854 972 z "},"Y":{"ha":888,"x_min":35,"x_max":853,"o":"m 700 972 l 853 972 l 558 383 l 558 0 l 301 0 l 301 363 l 35 972 l 325 972 l 497 551 l 700 972 z "},"Z":{"ha":858,"x_min":49,"x_max":810,"o":"m 361 125 l 772 125 l 772 0 l 49 0 l 49 79 l 499 847 l 106 847 l 106 972 l 810 972 l 810 890 l 361 125 z "},"D":{"ha":1010,"x_min":97,"x_max":940,"o":"m 463 972 q 654 936 567 972 q 806 835 742 900 q 905 683 869 771 q 940 490 940 594 q 904 295 940 385 q 804 140 868 206 q 653 37 740 74 q 463 0 565 0 l 97 0 l 97 972 l 463 972 m 461 125 q 539 153 503 125 q 601 229 575 181 q 642 344 626 278 q 657 486 657 410 q 642 628 657 563 q 601 743 626 694 q 539 819 575 792 q 461 847 503 847 l 354 847 l 354 125 l 461 125 z "},"a":{"ha":949,"x_min":35,"x_max":914,"o":"m 375 972 l 574 972 l 914 0 l 642 0 l 558 253 l 265 253 l 181 0 l 35 0 l 375 972 m 307 378 l 517 378 l 411 696 l 307 378 z "},"b":{"ha":965,"x_min":97,"x_max":917,"o":"m 754 536 q 819 492 789 519 q 870 431 849 465 q 904 358 892 397 q 917 276 917 318 q 894 171 917 221 q 834 83 872 121 q 744 22 796 44 q 635 0 693 0 l 97 0 l 97 972 l 583 972 q 683 952 636 972 q 765 897 731 932 q 820 818 800 863 q 840 724 840 774 q 816 618 840 668 q 754 536 792 568 m 544 125 q 608 174 582 128 q 635 288 635 221 q 608 399 635 353 q 544 449 582 446 l 354 449 l 354 125 l 544 125 m 479 847 l 354 847 l 354 574 l 479 574 q 535 612 514 574 q 557 713 557 650 q 536 810 557 772 q 479 847 515 847 z "},"c":{"ha":993,"x_min":69,"x_max":944,"o":"m 622 114 q 840 246 756 114 l 944 174 q 796 28 892 81 q 578 -24 700 -24 q 379 17 472 -24 q 217 126 286 57 q 109 288 149 194 q 69 488 69 381 q 110 686 69 593 q 219 848 150 779 q 383 956 289 917 q 583 996 476 996 q 685 986 635 996 q 782 960 736 976 q 867 919 828 943 q 932 865 906 894 l 836 760 q 625 858 746 858 q 513 832 563 858 q 427 758 463 806 q 372 641 392 710 q 353 489 353 572 q 372 335 353 404 q 427 216 392 265 q 513 140 463 167 q 622 114 563 114 z "},"d":{"ha":1010,"x_min":97,"x_max":940,"o":"m 463 972 q 654 936 567 972 q 806 835 742 900 q 905 683 869 771 q 940 490 940 594 q 904 295 940 385 q 804 140 868 206 q 653 37 740 74 q 463 0 565 0 l 97 0 l 97 972 l 463 972 m 461 125 q 539 153 503 125 q 601 229 575 181 q 642 344 626 278 q 657 486 657 410 q 642 628 657 563 q 601 743 626 694 q 539 819 575 792 q 461 847 503 847 l 354 847 l 354 125 l 461 125 z "},"e":{"ha":824,"x_min":97,"x_max":775,"o":"m 354 125 l 775 125 l 775 0 l 97 0 l 97 972 l 747 972 l 747 847 l 354 847 l 354 549 l 567 549 l 567 424 l 354 424 l 354 125 z "},"f":{"ha":793,"x_min":97,"x_max":744,"o":"m 97 972 l 744 972 l 744 847 l 354 847 l 354 513 l 596 513 l 596 388 l 354 388 l 354 0 l 97 0 l 97 972 z "},"g":{"ha":1074,"x_min":69,"x_max":976,"o":"m 572 419 l 572 547 l 976 547 l 976 0 l 822 0 l 792 46 q 691 -6 744 13 q 579 -24 638 -24 q 380 17 472 -24 q 218 126 288 57 q 109 288 149 194 q 69 488 69 381 q 110 686 69 593 q 219 848 150 779 q 383 956 289 917 q 585 996 476 996 q 687 986 636 996 q 783 960 738 976 q 867 919 829 943 q 932 865 906 894 l 836 760 q 626 858 749 858 q 513 832 564 858 q 427 758 463 806 q 372 641 392 710 q 353 489 353 572 q 372 335 353 404 q 427 217 392 267 q 513 141 463 168 q 622 114 563 114 q 671 124 646 114 q 719 158 696 135 l 719 419 l 572 419 z "},"h":{"ha":1004,"x_min":97,"x_max":907,"o":"m 651 547 l 651 972 l 907 972 l 907 0 l 651 0 l 651 419 l 353 419 l 353 0 l 97 0 l 97 972 l 353 972 l 353 547 l 651 547 z "},"i":{"ha":424,"x_min":83,"x_max":340,"o":"m 83 0 l 83 972 l 340 972 l 340 0 l 83 0 z "},"j":{"ha":438,"x_min":-114,"x_max":354,"o":"m 97 335 l 97 972 l 354 972 l 354 335 q 327 97 354 197 q 247 -75 300 -3 q 115 -194 194 -147 q -69 -274 35 -242 l -114 -185 q -6 -112 -47 -154 q 58 -10 35 -71 q 89 134 81 50 q 97 335 97 218 z "},"k":{"ha":983,"x_min":97,"x_max":949,"o":"m 857 972 l 565 638 l 949 0 l 653 0 l 390 438 l 354 396 l 354 0 l 97 0 l 97 972 l 354 972 l 354 579 l 697 972 l 857 972 z "},"l":{"ha":819,"x_min":97,"x_max":785,"o":"m 354 125 l 785 125 l 785 0 l 97 0 l 97 972 l 354 972 l 354 125 z "},"m":{"ha":1179,"x_min":97,"x_max":1082,"o":"m 825 972 l 1082 972 l 1082 0 l 825 0 l 825 611 l 631 0 l 428 0 l 233 611 l 233 0 l 97 0 l 97 972 l 364 972 l 594 322 l 825 972 z "},"n":{"ha":947,"x_min":83,"x_max":864,"o":"m 728 354 l 728 972 l 864 972 l 864 0 l 628 0 l 219 679 l 219 0 l 83 0 l 83 972 l 357 972 l 728 354 z "},"o":{"ha":1142,"x_min":69,"x_max":1072,"o":"m 571 996 q 766 956 675 996 q 925 847 857 915 q 1033 685 993 778 q 1072 486 1072 592 q 1033 288 1072 381 q 925 126 993 196 q 766 17 857 57 q 571 -24 675 -24 q 376 17 467 -24 q 217 126 285 57 q 109 288 149 196 q 69 486 69 381 q 109 685 69 592 q 217 847 149 778 q 376 956 285 915 q 571 996 467 996 m 571 114 q 656 143 617 114 q 725 223 696 172 q 772 341 754 274 q 789 486 789 408 q 772 631 789 563 q 725 749 754 699 q 656 829 696 800 q 571 858 617 858 q 487 829 526 858 q 417 749 447 800 q 370 631 388 699 q 353 486 353 563 q 370 341 353 408 q 417 223 388 274 q 487 143 447 172 q 571 114 526 114 z "},"p":{"ha":928,"x_min":97,"x_max":879,"o":"m 554 972 q 681 947 621 972 q 784 876 740 921 q 853 771 828 831 q 879 643 879 711 q 853 515 879 575 q 784 410 828 456 q 681 340 740 365 q 554 314 621 314 l 354 314 l 354 0 l 97 0 l 97 972 l 554 972 m 481 439 q 525 455 504 439 q 562 499 546 471 q 587 564 578 526 q 596 643 596 601 q 587 722 596 685 q 562 788 578 760 q 525 831 546 815 q 481 847 504 847 l 354 847 l 354 439 l 481 439 z "},"q":{"ha":1142,"x_min":69,"x_max":1557,"o":"m 1347 -243 q 1424 -231 1385 -243 q 1493 -196 1464 -219 l 1557 -276 q 1473 -328 1513 -307 q 1396 -361 1433 -349 q 1322 -378 1358 -374 q 1249 -383 1286 -383 q 1079 -358 1154 -383 q 942 -293 1004 -332 q 826 -208 879 -254 q 724 -122 774 -162 q 627 -53 675 -82 q 525 -21 579 -25 q 346 31 429 -12 q 201 142 263 74 q 105 298 140 210 q 69 486 69 386 q 109 684 69 592 q 217 846 149 776 q 376 956 285 915 q 571 996 467 996 q 766 956 675 996 q 925 846 857 915 q 1033 684 993 776 q 1072 486 1072 592 q 1052 345 1072 414 q 996 217 1032 276 q 907 112 960 158 q 790 38 854 65 q 873 5 831 29 q 960 -50 915 -19 q 1051 -115 1004 -81 q 1146 -178 1097 -150 q 1244 -224 1194 -206 q 1347 -243 1294 -243 m 571 114 q 656 143 617 114 q 725 223 696 172 q 772 341 754 274 q 789 486 789 408 q 772 631 789 563 q 725 749 754 699 q 656 829 696 800 q 571 858 617 858 q 487 829 526 858 q 418 749 447 800 q 372 631 389 699 q 354 486 354 563 q 372 341 354 408 q 418 223 389 274 q 487 143 447 172 q 571 114 526 114 z "},"r":{"ha":935,"x_min":97,"x_max":900,"o":"m 860 679 q 817 525 860 594 q 703 419 774 456 l 900 0 l 635 0 l 451 388 l 353 388 l 353 0 l 97 0 l 97 972 l 571 972 q 683 949 631 972 q 775 887 736 926 q 837 794 814 847 q 860 679 860 740 m 353 847 l 353 513 l 481 513 q 517 526 500 513 q 548 562 535 539 q 569 615 561 585 q 576 679 576 644 q 569 744 576 714 q 548 798 561 775 q 517 834 535 821 q 481 847 500 847 l 353 847 z "},"s":{"ha":883,"x_min":35,"x_max":835,"o":"m 301 781 q 340 713 301 742 q 439 656 379 683 q 567 599 499 629 q 696 527 636 568 q 795 431 756 486 q 835 296 835 375 q 804 171 835 229 q 719 69 774 113 q 591 1 665 26 q 428 -24 517 -24 q 202 27 304 -24 q 35 174 100 78 l 139 244 q 428 111 235 111 q 543 132 507 111 q 579 192 579 153 q 556 251 579 225 q 496 299 533 276 q 410 343 458 322 q 311 388 361 364 q 213 438 261 411 q 128 501 165 465 q 67 581 90 536 q 44 683 44 625 q 76 807 44 750 q 164 906 108 864 q 295 972 219 949 q 460 996 371 996 q 660 961 568 996 q 808 865 753 926 l 713 761 q 602 840 656 818 q 471 863 549 863 q 344 842 388 863 q 301 781 301 821 z "},"t":{"ha":904,"x_min":35,"x_max":869,"o":"m 35 972 l 869 972 l 869 847 l 581 847 l 581 0 l 324 0 l 324 847 l 35 847 l 35 972 z "},"u":{"ha":986,"x_min":97,"x_max":903,"o":"m 767 386 l 767 972 l 903 972 l 903 386 q 875 215 903 292 q 795 86 847 139 q 668 5 743 33 q 500 -24 593 -24 q 332 5 407 -24 q 205 86 257 33 q 125 215 153 139 q 97 386 97 292 l 97 972 l 354 972 l 354 386 q 410 188 354 261 q 561 114 465 114 q 712 187 657 114 q 767 386 767 260 z "},"v":{"ha":922,"x_min":35,"x_max":888,"o":"m 526 322 l 742 972 l 888 972 l 547 0 l 375 0 l 35 972 l 311 972 l 526 322 z "},"w":{"ha":1343,"x_min":35,"x_max":1308,"o":"m 1004 357 l 1156 972 l 1308 972 l 1024 0 l 846 0 l 672 650 l 499 0 l 319 0 l 35 972 l 318 972 l 471 357 l 644 971 l 831 971 l 1004 357 z "},"x":{"ha":896,"x_min":35,"x_max":861,"o":"m 854 972 l 576 525 l 861 0 l 572 0 l 388 340 l 186 0 l 35 0 l 315 475 l 46 972 l 335 972 l 503 661 l 703 972 l 854 972 z "},"y":{"ha":888,"x_min":35,"x_max":853,"o":"m 700 972 l 853 972 l 558 383 l 558 0 l 301 0 l 301 363 l 35 972 l 325 972 l 497 551 l 700 972 z "},"z":{"ha":858,"x_min":49,"x_max":810,"o":"m 361 125 l 772 125 l 772 0 l 49 0 l 49 79 l 499 847 l 106 847 l 106 972 l 810 972 l 810 890 l 361 125 z "},"ª":{"ha":803,"x_min":97,"x_max":706,"o":"m 706 757 l 706 250 l 629 250 l 576 290 q 488 247 538 263 q 376 231 439 231 q 270 245 321 231 q 181 289 219 260 q 120 362 143 318 q 97 464 97 406 q 118 558 97 519 q 172 624 139 597 q 248 667 206 651 q 334 692 290 683 q 419 703 378 700 q 493 706 461 706 l 493 757 q 490 797 493 774 q 477 840 488 819 q 447 876 467 861 q 392 893 426 892 q 290 858 333 893 q 222 775 246 822 l 144 846 q 204 921 167 888 q 290 972 236 949 q 428 996 344 996 q 535 980 485 996 q 624 933 586 964 q 683 858 661 903 q 706 757 706 814 m 493 369 l 493 603 q 435 596 467 603 q 374 574 403 589 q 327 531 346 558 q 308 463 308 504 q 314 420 308 443 q 333 378 319 397 q 367 346 346 358 q 421 333 389 333 q 461 342 442 333 q 493 369 481 350 z "},"º":{"ha":865,"x_min":97,"x_max":768,"o":"m 433 996 q 573 965 511 996 q 678 883 635 935 q 745 761 722 831 q 768 613 768 692 q 745 464 768 533 q 678 342 722 394 q 573 260 635 290 q 433 231 511 231 q 293 260 356 231 q 187 342 231 290 q 120 464 143 394 q 97 613 97 533 q 120 761 97 692 q 187 883 143 831 q 293 965 231 935 q 433 996 356 996 m 433 333 q 483 356 461 333 q 522 415 506 378 q 547 503 538 453 q 556 613 556 554 q 547 722 556 671 q 523 810 539 772 q 484 871 507 849 q 433 893 461 893 q 383 871 406 893 q 344 810 360 849 q 319 722 328 772 q 310 613 310 671 q 319 503 310 554 q 344 415 328 453 q 383 356 360 378 q 433 333 406 333 z "},"¹":{"ha":451,"x_min":97,"x_max":354,"o":"m 97 883 l 304 978 l 354 978 l 354 249 l 161 249 l 161 794 l 97 794 l 97 883 z "},"²":{"ha":749,"x_min":97,"x_max":651,"o":"m 651 775 q 627 683 651 729 q 563 594 603 638 q 473 509 524 550 q 368 433 422 468 l 618 433 l 618 249 l 97 249 l 97 342 l 99 342 q 142 378 111 353 q 210 437 172 403 q 288 513 247 471 q 363 599 329 554 q 417 688 396 643 q 439 775 439 733 q 412 862 439 831 q 333 893 385 893 q 251 860 289 893 q 182 775 213 828 l 104 846 q 148 903 122 876 q 206 951 174 931 q 278 984 239 972 q 365 996 318 996 q 480 982 428 996 q 570 940 532 968 q 630 870 608 911 q 651 775 651 829 z "},"³":{"ha":767,"x_min":97,"x_max":669,"o":"m 535 625 q 635 549 600 596 q 669 442 669 503 q 649 357 669 396 q 592 290 629 318 q 505 246 556 261 q 393 231 454 231 q 215 270 294 231 q 97 379 136 310 l 176 432 q 340 333 247 333 q 424 364 392 333 q 457 443 457 394 q 409 538 457 501 q 286 575 361 575 l 286 668 q 402 700 360 668 q 444 788 444 732 q 417 863 444 833 q 344 893 390 893 q 262 864 306 893 q 186 776 218 835 l 111 846 q 226 956 153 917 q 393 996 300 996 q 498 981 450 996 q 581 939 546 965 q 637 876 617 913 q 657 796 657 839 q 625 697 657 740 q 535 625 593 654 z "},"%":{"ha":1261,"x_min":97,"x_max":1164,"o":"m 553 736 q 537 635 553 682 q 492 552 521 588 q 420 497 463 517 q 325 476 378 476 q 230 497 272 476 q 158 552 188 517 q 113 635 129 588 q 97 736 97 682 q 113 838 97 790 q 158 920 129 885 q 230 976 188 956 q 325 996 272 996 q 420 976 378 996 q 492 920 463 956 q 537 838 521 885 q 553 736 553 790 m 250 736 q 270 614 250 664 q 325 564 290 564 q 381 614 361 564 q 401 736 401 664 q 381 859 401 808 q 325 910 361 910 q 270 859 290 910 q 250 736 250 808 m 936 496 q 1031 476 989 496 q 1103 420 1074 456 q 1148 338 1132 385 q 1164 236 1164 290 q 1148 135 1164 182 q 1103 52 1132 88 q 1031 -3 1074 17 q 936 -24 989 -24 q 841 -3 883 -24 q 769 52 799 17 q 724 135 740 88 q 708 236 708 182 q 724 338 708 290 q 769 420 740 385 q 841 476 799 456 q 936 496 883 496 m 936 64 q 991 114 971 64 q 1011 236 1011 164 q 991 359 1011 308 q 936 410 971 410 q 880 359 900 410 q 860 236 860 308 q 880 114 860 164 q 936 64 900 64 m 894 972 l 1050 972 l 367 0 l 211 0 l 894 972 z "},"€":{"ha":1164,"x_min":97,"x_max":1067,"o":"m 747 860 q 587 801 653 860 q 493 638 521 742 l 647 638 l 647 513 l 475 513 l 475 460 l 647 460 l 647 335 l 494 335 q 589 172 524 231 q 744 115 654 114 q 865 149 810 115 q 963 246 921 182 l 1065 175 q 918 30 1014 82 q 700 -22 822 -22 q 537 4 614 -22 q 396 78 460 31 q 285 191 332 125 q 214 335 239 257 l 97 335 l 97 460 l 192 460 l 192 513 l 97 513 l 97 638 l 213 638 q 283 782 236 717 q 395 895 331 847 q 539 969 460 943 q 706 996 618 996 q 823 980 767 996 q 926 938 879 964 q 1010 875 974 911 q 1067 800 1046 839 l 963 728 q 867 824 922 789 q 747 860 813 860 z "},"$":{"ha":832,"x_min":97,"x_max":735,"o":"m 310 722 q 341 667 310 690 q 419 622 372 644 q 522 576 467 600 q 624 520 576 553 q 703 442 672 488 q 735 335 735 397 q 717 249 735 289 q 667 176 700 208 q 590 122 635 144 q 492 89 546 99 l 492 0 l 356 0 l 356 85 q 208 133 274 96 q 97 238 142 171 l 181 294 q 410 188 257 188 q 501 204 472 188 q 531 253 531 221 q 499 313 531 288 q 421 362 468 339 q 318 408 374 385 q 215 464 263 432 q 137 540 168 496 q 106 644 106 583 q 125 733 106 692 q 180 806 144 774 q 263 859 215 838 q 369 889 311 881 l 369 972 l 506 972 l 506 888 q 624 853 571 878 q 714 790 678 828 l 638 706 q 549 769 592 751 q 446 788 507 788 q 310 722 310 788 z "},"¢":{"ha":892,"x_min":97,"x_max":794,"o":"m 539 190 q 635 217 592 190 q 713 296 679 244 l 794 238 q 701 138 760 176 q 567 86 642 99 l 567 0 l 431 0 l 431 88 q 299 136 360 100 q 192 225 238 172 q 122 345 147 278 q 97 488 97 413 q 122 629 97 563 q 192 749 147 696 q 299 838 238 801 q 431 886 360 874 l 431 972 l 567 972 l 567 889 q 692 854 633 881 q 785 790 750 828 l 708 706 q 542 785 638 785 q 451 763 492 785 q 383 703 411 742 q 339 611 354 665 q 324 490 324 557 q 340 367 324 422 q 383 272 356 311 q 451 211 411 232 q 539 190 490 190 z "},"£":{"ha":943,"x_min":97,"x_max":846,"o":"m 543 858 q 479 842 503 858 q 442 801 456 825 q 424 751 428 778 q 419 701 419 724 q 431 618 419 651 q 451 549 442 585 l 649 549 l 649 424 l 465 424 q 443 351 460 383 q 408 296 426 319 q 361 247 386 269 l 846 247 l 846 0 l 136 0 l 136 185 l 138 185 q 156 198 140 186 q 188 231 171 210 q 217 285 204 253 q 231 360 231 317 q 227 393 231 378 q 218 424 224 408 l 97 424 l 97 549 l 161 549 q 143 615 150 578 q 136 701 136 653 q 169 838 136 782 q 256 930 203 894 q 376 981 310 965 q 507 996 442 996 q 616 984 564 996 q 712 953 668 972 q 790 912 756 935 q 846 867 824 889 l 750 761 q 659 830 714 801 q 543 858 604 858 z "},"¥":{"ha":1011,"x_min":97,"x_max":914,"o":"m 763 972 l 914 972 l 674 492 l 781 492 l 781 367 l 619 367 l 619 313 l 781 313 l 781 188 l 619 188 l 619 0 l 363 0 l 363 188 l 231 188 l 231 313 l 363 313 l 363 363 l 361 367 l 231 367 l 231 492 l 307 492 l 97 972 l 386 972 l 558 551 l 763 972 z "},"ß":{"ha":1135,"x_min":97,"x_max":1038,"o":"m 660 583 q 688 541 660 560 q 758 503 715 522 q 849 463 800 485 q 940 410 897 440 q 1010 339 982 381 q 1038 240 1038 297 q 1015 143 1038 188 q 949 67 992 99 q 844 17 906 35 q 704 0 782 0 l 443 0 l 443 125 l 704 125 q 726 126 713 125 q 753 131 739 128 q 776 142 767 135 q 786 160 786 149 q 758 210 786 188 q 688 252 731 232 q 597 294 646 272 q 506 346 549 317 q 436 415 464 375 q 408 511 408 456 q 435 624 408 583 q 495 692 463 665 q 555 742 528 719 q 582 801 582 765 q 558 842 582 825 q 504 858 533 858 q 424 842 454 858 q 378 801 394 825 q 358 751 363 778 q 353 701 353 724 l 353 0 l 97 0 l 97 701 q 124 838 97 782 q 198 930 150 894 q 314 981 246 965 q 467 996 382 996 q 623 980 551 996 q 745 936 694 964 q 824 871 796 908 q 853 790 853 833 q 823 725 853 750 q 756 680 793 700 q 690 638 719 660 q 660 583 660 617 z "},".":{"ha":475,"x_min":97,"x_max":378,"o":"m 238 257 q 292 246 267 257 q 337 216 318 235 q 367 172 356 197 q 378 117 378 146 q 367 62 378 88 q 337 17 356 36 q 292 -12 318 -1 q 238 -24 267 -24 q 183 -12 208 -24 q 138 17 157 -1 q 108 62 119 36 q 97 117 97 88 q 108 172 97 146 q 138 216 119 197 q 183 246 157 235 q 238 257 208 257 z "},",":{"ha":508,"x_min":97,"x_max":411,"o":"m 265 257 q 372 209 333 257 q 411 86 411 161 q 390 -23 411 28 q 329 -114 368 -74 q 237 -183 290 -154 q 119 -225 183 -211 l 97 -176 q 157 -152 128 -167 q 208 -116 186 -137 q 240 -65 229 -94 q 244 1 250 -36 q 164 36 196 1 q 131 124 132 71 q 168 219 131 182 q 265 257 206 257 z "},":":{"ha":475,"x_min":97,"x_max":378,"o":"m 238 257 q 292 246 267 257 q 337 216 318 235 q 367 172 356 197 q 378 117 378 146 q 367 62 378 88 q 337 17 356 36 q 292 -12 318 -1 q 238 -24 267 -24 q 183 -12 208 -24 q 138 17 157 -1 q 108 62 119 36 q 97 117 97 88 q 108 172 97 146 q 138 216 119 197 q 183 246 157 235 q 238 257 208 257 m 238 899 q 292 888 267 899 q 337 857 318 876 q 367 813 356 838 q 378 758 378 788 q 367 703 378 729 q 337 659 356 678 q 292 629 318 640 q 238 618 267 618 q 183 629 208 618 q 138 659 157 640 q 108 703 119 678 q 97 758 97 729 q 108 813 97 788 q 138 857 119 838 q 183 888 157 876 q 238 899 208 899 z "},";":{"ha":508,"x_min":97,"x_max":411,"o":"m 265 257 q 372 209 333 257 q 411 86 411 161 q 390 -23 411 28 q 329 -114 368 -74 q 237 -183 290 -154 q 119 -225 183 -211 l 97 -176 q 157 -152 128 -167 q 208 -116 186 -137 q 240 -65 229 -94 q 244 1 250 -36 q 164 36 196 1 q 131 124 132 71 q 169 219 131 182 q 265 257 207 257 m 271 899 q 326 888 300 899 q 370 857 351 876 q 400 813 389 838 q 411 758 411 788 q 400 703 411 729 q 370 659 389 678 q 326 629 351 640 q 271 618 300 618 q 216 629 242 618 q 172 659 190 640 q 142 703 153 678 q 131 758 131 729 q 142 813 131 788 q 172 857 153 838 q 216 888 190 876 q 271 899 242 899 z "},"‚":{"ha":510,"x_min":97,"x_max":413,"o":"m 265 257 q 373 209 333 257 q 413 86 413 161 q 391 -23 413 28 q 331 -114 369 -74 q 238 -183 292 -154 q 119 -225 183 -211 l 97 -176 q 157 -152 128 -167 q 208 -116 186 -137 q 240 -65 229 -94 q 244 1 250 -36 q 164 36 196 1 q 132 124 132 71 q 169 219 132 182 q 265 257 207 257 z "},"„":{"ha":822,"x_min":97,"x_max":725,"o":"m 265 257 q 372 209 333 257 q 411 86 411 161 q 390 -23 411 28 q 329 -114 368 -74 q 237 -183 290 -154 q 119 -225 183 -211 l 97 -176 q 157 -152 128 -167 q 208 -116 186 -137 q 240 -65 229 -94 q 244 1 250 -36 q 164 36 196 1 q 132 124 132 71 q 169 219 131 182 q 265 257 207 257 m 579 257 q 686 209 647 257 q 725 86 725 161 q 703 -23 725 28 q 644 -114 682 -74 q 551 -183 606 -154 q 433 -225 497 -211 l 411 -176 q 471 -152 442 -167 q 522 -116 500 -137 q 554 -65 543 -94 q 560 1 565 -36 q 478 36 511 1 q 446 124 446 71 q 483 219 446 182 q 579 257 521 257 z "},"…":{"ha":1142,"x_min":97,"x_max":1044,"o":"m 238 257 q 292 246 267 257 q 337 216 318 235 q 367 172 356 197 q 378 117 378 146 q 367 62 378 88 q 337 17 356 36 q 292 -12 318 -1 q 238 -24 267 -24 q 183 -12 208 -24 q 138 17 157 -1 q 108 62 119 36 q 97 117 97 88 q 108 172 97 146 q 138 216 119 197 q 183 246 157 235 q 238 257 208 257 m 904 257 q 959 246 933 257 q 1003 216 985 235 q 1033 172 1022 197 q 1044 117 1044 146 q 1033 62 1044 88 q 1003 17 1022 36 q 959 -12 985 -1 q 904 -24 933 -24 q 849 -12 875 -24 q 805 17 824 -1 q 775 62 786 36 q 764 117 764 88 q 775 172 764 146 q 805 216 786 197 q 849 246 824 235 q 904 257 875 257 m 571 257 q 626 246 600 257 q 670 216 651 235 q 700 172 689 197 q 711 117 711 146 q 700 62 711 88 q 670 17 689 36 q 626 -12 651 -1 q 571 -24 600 -24 q 516 -12 542 -24 q 472 17 490 -1 q 442 62 453 36 q 431 117 431 88 q 442 172 431 146 q 472 216 453 197 q 516 246 490 235 q 571 257 542 257 z "},"'":{"ha":510,"x_min":97,"x_max":413,"o":"m 264 768 q 345 733 313 768 q 378 646 378 699 q 340 551 378 588 q 244 514 303 514 q 137 562 176 514 q 97 685 97 610 q 119 794 97 743 q 179 885 140 844 q 272 953 218 925 q 390 996 325 981 l 413 947 q 353 923 382 938 q 302 887 324 908 q 269 836 281 865 q 264 768 258 807 z "},"\"":{"ha":824,"x_min":97,"x_max":726,"o":"m 726 947 q 667 923 696 938 q 616 887 638 908 q 583 836 594 865 q 579 768 572 807 q 660 733 628 768 q 692 646 692 699 q 654 551 692 588 q 558 514 617 514 q 451 562 490 514 q 413 685 413 610 q 434 794 413 743 q 494 885 456 844 q 585 953 532 925 q 704 996 639 981 l 726 947 m 244 514 q 136 562 175 514 q 97 685 97 610 q 119 794 97 743 q 179 885 140 844 q 272 953 218 925 q 390 996 325 981 l 413 947 q 353 923 382 938 q 302 887 324 908 q 269 836 281 865 q 264 768 258 807 q 345 733 313 768 q 378 646 378 699 q 340 551 378 588 q 244 514 303 514 z "},"‘":{"ha":508,"x_min":97,"x_max":411,"o":"m 97 685 q 119 794 97 743 q 179 885 140 844 q 272 953 218 925 q 389 996 325 981 l 411 947 q 351 923 381 938 q 301 887 322 908 q 268 836 279 865 q 264 768 257 807 q 344 733 313 768 q 378 646 376 699 q 340 551 378 588 q 243 514 301 514 q 136 562 175 514 q 97 685 97 610 z "},"’":{"ha":510,"x_min":97,"x_max":413,"o":"m 97 563 q 157 587 128 572 q 208 622 186 601 q 240 672 229 643 q 244 740 250 701 q 164 775 196 740 q 132 863 132 810 q 169 958 132 921 q 265 996 207 996 q 373 948 333 996 q 413 825 413 900 q 391 716 413 767 q 331 625 369 665 q 238 556 292 585 q 119 514 183 528 l 97 563 z "},"“":{"ha":824,"x_min":97,"x_max":726,"o":"m 726 947 q 667 923 696 938 q 616 887 638 908 q 583 836 594 865 q 579 768 572 807 q 660 733 628 768 q 692 646 692 699 q 654 551 692 588 q 558 514 617 514 q 451 562 490 514 q 413 685 413 610 q 434 794 413 743 q 494 885 456 844 q 585 953 532 925 q 704 996 639 981 l 726 947 m 264 768 q 345 733 313 768 q 378 646 378 699 q 340 551 378 588 q 244 514 303 514 q 136 562 175 514 q 97 685 97 610 q 119 794 97 743 q 179 885 140 844 q 272 953 218 925 q 390 996 325 981 l 413 947 q 353 923 382 938 q 301 887 324 908 q 268 836 279 865 q 264 768 257 807 z "},"”":{"ha":824,"x_min":97,"x_max":726,"o":"m 265 996 q 372 948 333 996 q 411 825 411 900 q 390 716 411 767 q 330 625 368 665 q 238 556 292 585 q 119 514 183 528 l 97 563 q 157 587 128 572 q 208 622 186 601 q 240 672 229 643 q 244 740 250 701 q 164 775 196 740 q 132 863 132 810 q 169 958 132 921 q 265 996 207 996 m 581 996 q 688 948 649 996 q 726 825 726 900 q 705 716 726 767 q 644 625 683 665 q 551 556 606 585 q 433 514 497 528 l 411 563 q 471 587 442 572 q 522 622 500 601 q 555 672 544 643 q 560 740 565 701 q 478 775 511 740 q 446 863 446 810 q 483 958 446 921 q 581 996 521 996 z "},"•":{"ha":600,"x_min":97,"x_max":503,"o":"m 300 689 q 379 673 342 689 q 444 630 417 657 q 487 565 471 603 q 503 486 503 528 q 487 407 503 444 q 444 342 471 369 q 379 299 417 315 q 300 283 342 283 q 222 299 258 283 q 157 342 185 315 q 113 407 129 369 q 97 486 97 444 q 113 565 97 528 q 157 630 129 603 q 222 673 185 657 q 300 689 258 689 z "},"·":{"ha":474,"x_min":97,"x_max":376,"o":"m 236 626 q 291 615 265 626 q 335 585 317 604 q 365 541 354 567 q 376 486 376 515 q 365 431 376 457 q 335 387 354 406 q 291 357 317 368 q 236 346 265 346 q 182 357 207 346 q 138 387 157 368 q 108 431 119 406 q 97 486 97 457 q 108 541 97 515 q 138 585 119 567 q 182 615 157 604 q 236 626 207 626 z "},"-":{"ha":717,"x_min":97,"x_max":619,"o":"m 97 424 l 97 549 l 619 549 l 619 424 l 97 424 z "},"–":{"ha":836,"x_min":97,"x_max":739,"o":"m 97 424 l 97 549 l 739 549 l 739 424 l 97 424 z "},"—":{"ha":1476,"x_min":97,"x_max":1379,"o":"m 97 424 l 97 549 l 1379 549 l 1379 424 l 97 424 z "},"<":{"ha":651,"x_min":97,"x_max":554,"o":"m 554 861 l 554 681 l 318 486 l 554 292 l 554 111 l 97 486 l 554 861 z "},">":{"ha":653,"x_min":97,"x_max":556,"o":"m 97 681 l 97 861 l 556 486 l 97 111 l 97 292 l 335 486 l 97 681 z "},"‹":{"ha":539,"x_min":97,"x_max":442,"o":"m 442 90 l 97 439 l 442 786 l 442 596 l 279 439 l 442 282 l 442 90 z "},"›":{"ha":539,"x_min":97,"x_max":442,"o":"m 97 596 l 97 786 l 442 439 l 97 90 l 97 282 l 260 439 l 97 596 z "},"«":{"ha":822,"x_min":97,"x_max":725,"o":"m 442 596 l 279 439 l 442 282 l 442 90 l 97 439 l 442 786 l 442 596 m 725 90 l 381 439 l 725 786 l 725 596 l 563 439 l 725 282 l 725 90 z "},"»":{"ha":822,"x_min":97,"x_max":725,"o":"m 381 596 l 381 786 l 725 439 l 381 90 l 381 282 l 543 439 l 381 596 m 97 786 l 442 439 l 97 90 l 97 282 l 260 439 l 97 596 l 97 786 z "},"/":{"ha":876,"x_min":97,"x_max":779,"o":"m 97 0 l 629 972 l 779 972 l 247 0 l 97 0 z "},"\\":{"ha":876,"x_min":97,"x_max":779,"o":"m 97 972 l 247 972 l 779 0 l 629 0 l 97 972 z "},"?":{"ha":917,"x_min":97,"x_max":819,"o":"m 482 996 q 610 979 549 996 q 717 930 671 963 q 792 851 764 897 q 819 746 819 804 q 795 648 819 689 q 734 574 771 607 q 655 514 697 542 q 576 456 613 486 q 515 391 539 426 q 490 308 490 356 l 354 308 l 354 360 q 367 437 354 403 q 401 500 381 471 q 445 556 422 529 q 489 608 468 582 q 523 665 510 635 q 536 731 536 694 q 501 824 536 789 q 413 858 467 858 q 293 815 350 858 q 200 703 236 772 l 97 796 q 158 874 119 838 q 246 937 196 910 q 356 980 296 964 q 482 996 415 996 m 422 257 q 477 246 451 257 q 522 216 503 235 q 551 172 540 197 q 563 117 563 146 q 551 62 563 88 q 522 17 540 36 q 477 -12 503 -1 q 422 -24 451 -24 q 368 -12 393 -24 q 324 17 343 -1 q 293 62 304 36 q 282 117 282 88 q 293 172 282 146 q 324 216 304 197 q 368 246 343 235 q 422 257 393 257 z "},"!":{"ha":475,"x_min":97,"x_max":378,"o":"m 169 310 l 169 406 q 160 539 169 481 q 141 645 151 597 q 122 734 131 693 q 113 817 113 775 q 147 944 113 893 q 239 996 181 996 q 290 982 267 996 q 329 944 313 968 q 355 889 346 921 q 364 819 364 857 q 355 738 364 779 q 335 647 346 696 q 315 538 324 597 q 306 406 306 479 l 306 310 l 169 310 m 238 257 q 292 246 267 257 q 337 216 318 235 q 367 172 356 197 q 378 117 378 146 q 367 63 378 88 q 337 18 356 38 q 292 -12 318 -1 q 238 -24 267 -24 q 183 -12 208 -24 q 139 18 158 -1 q 108 63 119 38 q 97 117 97 88 q 108 172 97 146 q 139 216 119 197 q 183 246 158 235 q 238 257 208 257 z "},"¿":{"ha":917,"x_min":97,"x_max":819,"o":"m 504 -196 q 624 -152 567 -196 q 717 -39 681 -108 l 819 -133 q 758 -211 796 -175 q 671 -274 721 -247 q 561 -317 621 -301 q 435 -332 501 -332 q 307 -315 368 -332 q 199 -267 246 -299 q 125 -188 153 -235 q 97 -83 97 -142 q 122 14 97 -28 q 182 88 146 56 q 261 149 218 121 q 340 206 304 176 q 401 272 376 236 q 425 354 425 307 l 561 354 l 561 303 q 533 192 561 238 q 470 107 504 147 q 408 26 436 67 q 379 -68 379 -14 q 415 -161 379 -126 q 504 -196 450 -196 m 494 406 q 440 417 465 406 q 395 447 414 428 q 365 491 376 465 q 354 546 354 517 q 365 601 354 575 q 395 645 376 626 q 440 675 414 664 q 494 686 465 686 q 549 675 524 686 q 592 645 574 664 q 622 601 611 626 q 633 546 633 575 q 622 491 633 517 q 592 447 611 465 q 549 417 574 428 q 494 406 524 406 z "},"¡":{"ha":475,"x_min":97,"x_max":378,"o":"m 306 354 l 306 257 q 315 124 306 182 q 335 17 324 65 q 355 -72 346 -31 q 364 -153 364 -112 q 329 -281 364 -231 q 238 -332 294 -332 q 145 -282 179 -332 q 111 -157 111 -232 q 120 -76 111 -118 q 140 16 129 -33 q 160 124 151 65 q 169 257 169 183 l 169 354 l 306 354 m 238 686 q 292 675 267 686 q 336 645 317 664 q 367 601 356 626 q 378 546 378 575 q 367 491 378 517 q 336 447 356 465 q 292 417 317 428 q 238 406 267 406 q 183 417 208 406 q 138 447 157 428 q 108 491 119 465 q 97 546 97 517 q 108 601 97 575 q 138 645 119 626 q 183 675 157 664 q 238 686 208 686 z "},"(":{"ha":685,"x_min":97,"x_max":588,"o":"m 97 333 q 133 588 97 471 q 232 791 168 706 q 386 924 296 876 q 588 972 476 972 l 588 847 q 501 811 539 847 q 436 708 463 775 q 395 546 410 642 q 381 332 381 450 q 395 117 381 213 q 436 -46 410 21 q 501 -149 463 -112 q 588 -185 539 -185 l 588 -310 q 389 -260 479 -310 q 234 -125 299 -211 q 133 79 169 -39 q 97 333 97 197 z "},")":{"ha":685,"x_min":97,"x_max":588,"o":"m 97 972 q 297 924 207 972 q 452 791 388 876 q 552 588 517 706 q 588 333 588 471 q 551 79 588 197 q 451 -125 515 -39 q 296 -260 386 -211 q 97 -310 206 -310 l 97 -185 q 183 -149 144 -185 q 247 -46 221 -112 q 288 117 274 21 q 303 332 303 213 q 288 546 303 450 q 247 708 274 642 q 183 811 221 775 q 97 847 144 847 l 97 972 z "},"[":{"ha":597,"x_min":97,"x_max":500,"o":"m 97 -310 l 97 972 l 500 972 l 500 847 l 351 847 l 351 -185 l 500 -185 l 500 -310 l 97 -310 z "},"]":{"ha":597,"x_min":97,"x_max":500,"o":"m 97 847 l 97 972 l 500 972 l 500 -310 l 97 -310 l 97 -185 l 246 -185 l 246 847 l 97 847 z "},"{":{"ha":763,"x_min":97,"x_max":665,"o":"m 254 671 q 278 791 254 736 q 344 886 301 846 q 444 949 386 926 q 569 972 501 972 l 665 972 l 665 847 q 594 837 621 847 q 551 801 567 826 q 529 731 535 775 q 524 621 524 688 q 513 506 524 554 q 477 422 501 457 q 415 366 453 388 q 321 332 376 344 q 415 297 376 319 q 477 240 453 275 q 513 155 501 204 q 524 39 524 106 q 529 -71 524 -28 q 550 -139 535 -114 q 593 -174 565 -164 q 665 -183 621 -183 l 665 -310 l 578 -310 q 449 -287 508 -310 q 346 -226 389 -265 q 278 -132 303 -186 q 254 -14 254 -78 q 257 122 254 68 q 248 209 260 176 q 203 256 236 242 q 97 269 169 269 l 97 394 q 203 407 169 394 q 248 451 236 419 q 257 535 260 482 q 254 671 254 589 z "},"}":{"ha":763,"x_min":97,"x_max":665,"o":"m 507 671 q 504 535 507 589 q 513 451 501 482 q 558 407 525 419 q 665 394 592 394 l 665 269 q 558 256 592 269 q 513 209 525 242 q 504 122 501 176 q 507 -14 507 68 q 483 -132 507 -78 q 415 -226 458 -186 q 313 -287 372 -265 q 183 -310 253 -310 l 97 -310 l 97 -183 q 168 -174 140 -183 q 211 -139 196 -164 q 232 -71 226 -114 q 238 39 238 -28 q 249 155 238 106 q 284 240 260 204 q 347 297 308 275 q 440 332 385 319 q 347 366 385 344 q 284 422 308 388 q 249 506 260 457 q 238 621 238 554 q 232 731 238 688 q 210 801 226 775 q 167 837 194 826 q 97 847 140 847 l 97 972 l 192 972 q 317 949 260 972 q 417 886 375 926 q 483 791 460 846 q 507 671 507 736 z "},"†":{"ha":1000,"x_min":97,"x_max":903,"o":"m 628 972 l 628 719 l 903 719 l 903 594 l 628 594 l 628 0 l 371 0 l 371 594 l 97 594 l 97 719 l 371 719 l 371 972 l 628 972 z "},"*":{"ha":710,"x_min":97,"x_max":613,"o":"m 574 882 l 613 763 l 457 713 l 553 579 l 451 506 l 356 639 l 258 506 l 157 579 l 253 713 l 97 763 l 136 882 l 292 832 l 292 996 l 418 996 l 418 832 l 574 882 z "},"&":{"ha":1096,"x_min":97,"x_max":999,"o":"m 649 560 l 999 560 l 999 435 l 917 435 l 917 0 l 763 0 l 732 44 q 469 -24 619 -24 q 318 -3 386 -24 q 201 56 250 18 q 124 147 151 94 q 97 265 97 200 q 288 511 97 438 q 154 721 154 583 q 181 833 154 782 q 256 919 208 883 q 371 976 304 956 q 518 996 438 996 q 632 985 575 996 q 739 958 689 975 q 828 916 789 940 q 888 865 867 892 l 792 761 q 694 837 739 815 q 599 858 649 858 q 478 818 518 858 q 438 718 438 778 q 495 601 438 643 q 649 560 553 560 m 658 164 l 658 435 l 608 435 q 517 422 558 435 q 445 387 475 410 q 398 332 415 364 q 381 261 381 300 q 424 156 381 199 q 540 114 467 114 q 603 125 575 114 q 658 164 632 136 z "},"®":{"ha":1214,"x_min":97,"x_max":1117,"o":"m 607 996 q 806 956 713 996 q 967 846 899 915 q 1076 684 1036 776 q 1117 486 1117 592 q 1076 288 1117 381 q 967 126 1036 194 q 806 17 899 57 q 607 -24 713 -24 q 408 17 501 -24 q 247 126 315 57 q 138 288 178 194 q 97 486 97 381 q 138 684 97 592 q 247 846 178 776 q 408 956 315 915 q 607 996 501 996 m 607 51 q 776 85 697 51 q 915 178 856 119 q 1008 317 974 238 q 1042 486 1042 396 q 1008 656 1042 576 q 915 794 974 735 q 776 887 856 853 q 607 921 697 921 q 438 887 517 921 q 299 794 358 853 q 206 656 240 735 q 172 486 172 576 q 206 317 172 396 q 299 178 240 238 q 438 85 358 119 q 607 51 517 51 m 821 592 q 798 508 821 546 q 736 450 775 469 l 843 222 l 700 222 l 600 433 l 547 433 l 547 222 l 407 222 l 407 750 l 665 750 q 726 738 697 750 q 775 703 754 725 q 808 653 796 682 q 821 592 821 625 m 547 683 l 547 501 l 617 501 q 653 528 638 501 q 668 592 668 554 q 653 656 668 629 q 617 683 638 683 l 547 683 z "},"©":{"ha":1213,"x_min":97,"x_max":1115,"o":"m 606 996 q 804 956 711 996 q 966 846 897 915 q 1075 684 1035 776 q 1115 486 1115 592 q 1075 288 1115 381 q 966 126 1035 194 q 804 17 897 57 q 606 -24 711 -24 q 408 17 500 -24 q 247 126 315 57 q 138 288 178 194 q 97 486 97 381 q 138 684 97 592 q 247 846 178 776 q 408 956 315 915 q 606 996 500 996 m 606 51 q 775 85 696 51 q 913 178 854 119 q 1006 317 972 238 q 1040 486 1040 396 q 1006 656 1040 576 q 913 794 972 735 q 775 887 854 853 q 606 921 696 921 q 436 887 515 921 q 298 794 357 853 q 205 656 239 735 q 171 486 171 576 q 205 317 171 396 q 298 178 239 238 q 436 85 357 119 q 606 51 515 51 m 646 285 q 765 356 718 285 l 821 317 q 741 238 793 267 q 622 210 689 210 q 515 231 565 210 q 426 290 464 253 q 367 378 389 328 q 346 488 346 429 q 367 596 346 546 q 427 683 389 646 q 516 741 465 719 q 625 763 567 763 q 734 744 682 763 q 814 693 786 725 l 763 636 q 647 689 714 689 q 540 635 581 689 q 500 489 500 581 q 540 341 500 397 q 646 285 581 285 z "},"@":{"ha":1181,"x_min":88,"x_max":1092,"o":"m 689 996 q 863 961 785 996 q 994 865 942 926 q 1069 720 1047 804 q 1078 538 1092 636 q 1040 407 1068 467 q 969 303 1011 347 q 877 233 928 258 q 771 208 826 208 q 657 260 696 208 q 518 208 594 208 q 437 227 472 208 q 378 279 401 246 q 347 358 356 313 q 346 460 338 404 q 385 579 356 524 q 460 675 415 635 q 560 739 504 715 q 678 764 615 763 l 818 764 q 799 635 808 701 q 781 512 790 578 q 763 385 771 446 q 764 304 756 326 q 800 282 772 282 q 865 303 832 282 q 926 360 899 325 q 975 442 954 396 q 1003 538 996 489 q 999 691 1015 621 q 940 813 983 761 q 827 892 897 864 q 661 921 757 921 q 497 888 578 921 q 349 799 415 856 q 238 667 283 743 q 181 503 193 590 q 186 326 167 408 q 253 182 206 243 q 376 86 301 121 q 549 51 451 51 q 631 59 590 51 q 713 82 672 67 l 775 31 q 658 -10 717 4 q 538 -24 599 -24 q 345 17 432 -24 q 199 127 258 57 q 114 292 140 197 q 104 493 88 386 q 172 693 119 601 q 303 852 225 785 q 480 958 381 919 q 689 996 579 996 m 614 322 l 668 689 q 613 667 640 688 q 562 613 585 647 q 522 535 539 579 q 497 440 504 490 q 501 322 486 365 q 553 279 517 279 q 591 293 576 279 q 614 322 606 307 z "},"#":{"ha":964,"x_min":97,"x_max":867,"o":"m 825 925 l 754 685 l 867 685 l 867 560 l 718 560 l 675 414 l 794 414 l 794 289 l 639 289 l 569 49 l 432 49 l 501 289 l 347 289 l 278 49 l 139 49 l 210 289 l 97 289 l 97 414 l 246 414 l 289 560 l 169 560 l 169 685 l 325 685 l 394 925 l 533 925 l 463 685 l 617 685 l 686 925 l 825 925 m 538 414 l 581 560 l 426 560 l 383 414 l 538 414 z "},"§":{"ha":900,"x_min":97,"x_max":803,"o":"m 378 825 q 409 771 378 794 q 488 726 440 747 q 590 680 535 704 q 693 623 646 656 q 772 546 740 590 q 803 439 803 501 q 761 310 803 368 q 649 221 719 253 q 710 149 686 189 q 733 56 733 110 q 709 -44 733 1 q 642 -124 685 -90 q 540 -178 599 -158 q 410 -197 481 -197 q 230 -158 311 -197 q 97 -42 149 -118 l 181 15 q 410 -92 257 -92 q 529 -26 529 -92 q 498 34 529 8 q 419 83 467 60 q 317 129 372 106 q 215 185 263 153 q 136 260 168 217 q 104 364 104 303 q 149 492 104 435 q 268 581 193 549 q 201 651 228 611 q 174 747 175 690 q 199 846 174 800 q 268 925 224 892 q 373 977 313 958 q 504 996 433 996 q 664 968 590 996 q 782 893 738 940 l 706 808 q 617 872 660 854 q 514 890 575 890 q 413 874 447 890 q 378 825 378 857 m 308 442 q 327 399 308 418 q 376 364 346 381 q 444 331 406 347 q 524 294 483 314 q 599 357 599 307 q 582 401 599 382 q 538 438 565 421 q 476 472 511 456 q 403 504 440 488 q 308 442 308 496 z "},"+":{"ha":717,"x_min":97,"x_max":619,"o":"m 421 747 l 421 549 l 619 549 l 619 424 l 421 424 l 421 225 l 296 225 l 296 424 l 97 424 l 97 549 l 296 549 l 296 747 l 421 747 z "},"×":{"ha":681,"x_min":97,"x_max":583,"o":"m 494 728 l 583 640 l 429 486 l 583 332 l 494 243 l 340 397 l 186 243 l 97 332 l 251 486 l 97 640 l 186 728 l 340 575 l 494 728 z "},"=":{"ha":717,"x_min":97,"x_max":619,"o":"m 97 549 l 97 674 l 619 674 l 619 549 l 97 549 m 97 299 l 97 424 l 619 424 l 619 299 l 97 299 z "},"_":{"ha":938,"x_min":97,"x_max":840,"o":"m 97 -24 l 97 101 l 840 101 l 840 -24 l 97 -24 z "},"°":{"ha":678,"x_min":97,"x_max":581,"o":"m 339 996 q 440 977 394 996 q 516 925 485 958 q 564 848 547 892 q 581 754 581 804 q 564 660 581 704 q 516 583 547 617 q 440 531 485 550 q 339 513 394 513 q 238 531 282 513 q 162 583 193 550 q 114 660 131 617 q 97 754 97 704 q 114 848 97 804 q 162 925 131 892 q 238 977 193 958 q 339 996 282 996 m 339 593 q 413 640 386 593 q 440 754 440 688 q 413 868 440 821 q 339 915 386 915 q 266 868 293 915 q 239 754 239 821 q 266 640 239 688 q 339 593 293 593 z "},"|":{"ha":331,"x_min":97,"x_max":233,"o":"m 97 -310 l 97 972 l 233 972 l 233 -310 l 97 -310 z "},"^":{"ha":840,"x_min":97,"x_max":743,"o":"m 97 538 l 419 996 l 743 538 l 569 538 l 419 761 l 271 538 l 97 538 z "},"~":{"ha":915,"x_min":97,"x_max":818,"o":"m 689 600 l 818 550 q 785 479 806 517 q 736 410 764 442 q 673 357 708 378 q 596 336 638 336 q 513 358 551 336 q 441 408 475 381 q 376 458 407 435 q 311 481 344 481 q 281 468 294 481 q 256 438 267 456 q 238 402 246 421 q 225 371 231 383 l 97 421 q 131 493 110 456 q 180 562 151 531 q 243 614 208 593 q 319 635 278 635 q 401 613 364 635 q 472 563 439 590 q 538 514 506 536 q 606 492 571 492 q 635 503 622 492 q 658 533 647 515 q 676 569 668 550 q 689 600 683 588 z "},"B":{"ha":965,"x_min":97,"x_max":917,"o":"m 754 536 q 819 492 789 519 q 870 431 849 465 q 904 358 892 397 q 917 276 917 318 q 894 171 917 221 q 834 83 872 121 q 744 22 796 44 q 635 0 693 0 l 97 0 l 97 972 l 583 972 q 683 952 636 972 q 765 897 731 932 q 820 818 800 863 q 840 724 840 774 q 816 618 840 668 q 754 536 792 568 m 544 125 q 608 174 582 128 q 635 288 635 221 q 608 399 635 353 q 544 449 582 446 l 354 449 l 354 125 l 544 125 m 479 847 l 354 847 l 354 574 l 479 574 q 535 612 514 574 q 557 713 557 650 q 536 810 557 772 q 479 847 515 847 z "},"C":{"ha":993,"x_min":69,"x_max":944,"o":"m 622 114 q 840 246 756 114 l 944 174 q 796 28 892 81 q 578 -24 700 -24 q 379 17 472 -24 q 217 126 286 57 q 109 288 149 194 q 69 488 69 381 q 110 686 69 593 q 219 848 150 779 q 383 956 289 917 q 583 996 476 996 q 685 986 635 996 q 782 960 736 976 q 867 919 828 943 q 932 865 906 894 l 836 760 q 625 858 746 858 q 513 832 563 858 q 427 758 463 806 q 372 641 392 710 q 353 489 353 572 q 372 335 353 404 q 427 216 392 265 q 513 140 463 167 q 622 114 563 114 z "},"A":{"ha":949,"x_min":35,"x_max":914,"o":"m 375 972 l 574 972 l 914 0 l 642 0 l 558 253 l 265 253 l 181 0 l 35 0 l 375 972 m 307 378 l 517 378 l 411 696 l 307 378 z "}}}
